<svg xmlns="http://www.w3.org/2000/svg" viewBox="0 0 800 420" width="800" height="420" xmlns:c2pa="http://c2pa.org/manifest"><metadata><c2pa:manifest>AAAWgmp1bWIAAAAeanVtZGMycGEAEQAQgAAAqgA4m3EDYzJwYQAAABZcanVtYgAAAEdqdW1kYzJtYQARABCAAACqADibcQN1cm46YzJwYTpmNTg4ZGFiMy1lM2U3LTRmOTktYjg5MC01YmJhZGZlMWNjZmUAAAADl2p1bWIAAAApanVtZGMyYXMAEQAQgAAAqgA4m3EDYzJwYS5hc3NlcnRpb25zAAAAALxqdW1iAAAARGp1bWRjYm9yABEAEIAAAKoAOJtxE2MycGEuaW5ncmVkaWVudC52MwAAAAAYYzJzaE4ynxmP+76nD8sEcPO6+2EAAABwY2JvcqNpZGM6Zm9ybWF0bWltYWdlL3N2Zyt4bWxqaW5zdGFuY2VJRHgseG1wOmlpZDpkNzViYWNkNy1lY2E5LTQ4ZjYtOTJkNS03YTFmNjQ4M2Y5NTBscmVsYXRpb25zaGlwaHBhcmVudE9mAAAB4mp1bWIAAABBanVtZGNib3IAEQAQgAAAqgA4m3ETYzJwYS5hY3Rpb25zLnYyAAAAABhjMnNonpINh8JR6kCuIhEhPfmeLAAAAZljYm9yomdhY3Rpb25zgqJmYWN0aW9ua2MycGEub3BlbmVkanBhcmFtZXRlcnOha2luZ3JlZGllbnRzgaJjdXJseC1zZWxmI2p1bWJmPWMycGEuYXNzZXJ0aW9ucy9jMnBhLmluZ3JlZGllbnQudjNkaGFzaFggOUx0mm1OvW3XrBHeE4p923Nesr6S+62L8sGtDo1gYaGkZmFjdGlvbngdY29tLmFudGhyb3BpYy5jbGF1ZGUucHJvdmlkZWRqcGFyYW1ldGVyc6F4H2NvbS5hbnRocm9waWMub3JpZ2luLWNvbmZpZGVuY2VndW5rbm93bmtkZXNjcmlwdGlvbnhmQ2xhdWRlIHByb3ZpZGVkIHRoaXMgZmlsZSBhdCB0aGUgcmVxdWVzdCBvZiBhIHVzZXIgYW5kIG1heSBoYXZlIGNyZWF0ZWQgb3IgbW9kaWZpZWQgdGhlIGZpbGUgY29udGVudHMubXNvZnR3YXJlQWdlbnShZG5hbWVmQ2xhdWRlcmFsbEFjdGlvbnNJbmNsdWRlZPUAAADIanVtYgAAAEBqdW1kY2JvcgARABCAAACqADibcRNjMnBhLmhhc2guZGF0YQAAAAAYYzJzaFEzrDqJcsS5fyXaF01FXuoAAACAY2JvcqVjYWxnZnNoYTI1NmNwYWRNAAAAAAAAAAAAAAAAAGRoYXNoWCC2fFt2MSWzKaV/bEV4mBmELj0jOH6D4+8R9HnGJKFfi2RuYW1lbmp1bWJmIG1hbmlmZXN0amV4Y2x1c2lvbnOBomVzdGFydBiWZmxlbmd0aBkeBAAAAj5qdW1iAAAAJ2p1bWRjMmNsABEAEIAAAKoAOJtxA2MycGEuY2xhaW0udjIAAAACD2Nib3KlY2FsZ2ZzaGEyNTZpc2lnbmF0dXJleE1zZWxmI2p1bWJmPS9jMnBhL3VybjpjMnBhOmY1ODhkYWIzLWUzZTctNGY5OS1iODkwLTViYmFkZmUxY2NmZS9jMnBhLnNpZ25hdHVyZWppbnN0YW5jZUlEeCx4bXA6aWlkOjkxOTM5M2QxLWFmNDgtNDJiZi04ZDA2LWFjNjVkZjhlMThiNHJjcmVhdGVkX2Fzc2VydGlvbnODomN1cmx4LXNlbGYjanVtYmY9YzJwYS5hc3NlcnRpb25zL2MycGEuaW5ncmVkaWVudC52M2RoYXNoWCA5THSabU69bdesEd4Tin3bc16yvpL7rYvywa0OjWBhoaJjdXJseCpzZWxmI2p1bWJmPWMycGEuYXNzZXJ0aW9ucy9jMnBhLmFjdGlvbnMudjJkaGFzaFggj4+7wJT05IRVbtIC+NBvxsjgPIJUqtzznchu7kyc9AmiY3VybHgpc2VsZiNqdW1iZj1jMnBhLmFzc2VydGlvbnMvYzJwYS5oYXNoLmRhdGFkaGFzaFggCcB+hYvLqGwqyG28cjQCzxRDKXOEObk+zWfrPf3ljod0Y2xhaW1fZ2VuZXJhdG9yX2luZm+jZG5hbWVvQW50aHJvcGljIEZpbGVzZ3ZlcnNpb25lMS4wLjBrc3BlY1ZlcnNpb25lMi40LjAAABA4anVtYgAAAChqdW1kYzJjcwARABCAAACqADibcQNjMnBhLnNpZ25hdHVyZQAAABAIY2JvctKEWQISogEmGCFZAgowggIGMIIBjaADAgECAhRA5aAK7sI50L64g/oGQgU9Z1UTADAKBggqhkjOPQQDAzBJMRcwFQYDVQQKEw5BbnRocm9waWMsIFBCQzEuMCwGA1UEAxMlQW50aHJvcGljIENvbnRlbnQgQ3JlZGVudGlhbHMgUm9vdCBDQTAeFw0yNjA4MDcxODQzNTZaFw0yODA4MDYxOTQzNTZaMEQxFzAVBgNVBAoTDkFudGhyb3BpYywgUEJDMSkwJwYDVQQDEyBBbnRocm9waWMgQ2xhdWRlIENvbnRlbnQgU2lnbmluZzBZMBMGByqGSM49AgEGCCqGSM49AwEHA0IABJh6CmvLUBgFFNU0vUKlOVtE6djd17L5SuwX0LemFisBM3dkd/3cyjxFA3Qo5S46fX0/ihY0VZ7mfb9KF703t5OjWDBWMA4GA1UdDwEB/wQEAwIHgDAVBgNVHSUEDjAMBgorBgEEAYPoXgIBMAwGA1UdEwEB/wQCMAAwHwYDVR0jBBgwFoAUzlHiBIFOZFsj+OPEz5o+nMHXXMIwCgYIKoZIzj0EAwMDZwAwZAIwMXMdFJ4BetLLVY7ORuE9noqbbAZOZn/aArXyTwFAZfKrPzxF2vPoJNf1+UCdg1XGAjBwX1zd9WGqYkqmL5SFqw1QySjr1zJfpJM9+1rdDwSPLMOPOjKuiXjoU/pUUeG9RwmhY3BhZFkNngAAAAAAAAAAAAAAAAAAAAAAAAAAAAAAAAAAAAAAAAAAAAAAAAAAAAAAAAAAAAAAAAAAAAAAAAAAAAAAAAAAAAAAAAAAAAAAAAAAAAAAAAAAAAAAAAAAAAAAAAAAAAAAAAAAAAAAAAAAAAAAAAAAAAAAAAAAAAAAAAAAAAAAAAAAAAAAAAAAAAAAAAAAAAAAAAAAAAAAAAAAAAAAAAAAAAAAAAAAAAAAAAAAAAAAAAAAAAAAAAAAAAAAAAAAAAAAAAAAAAAAAAAAAAAAAAAAAAAAAAAAAAAAAAAAAAAAAAAAAAAAAAAAAAAAAAAAAAAAAAAAAAAAAAAAAAAAAAAAAAAAAAAAAAAAAAAAAAAAAAAAAAAAAAAAAAAAAAAAAAAAAAAAAAAAAAAAAAAAAAAAAAAAAAAAAAAAAAAAAAAAAAAAAAAAAAAAAAAAAAAAAAAAAAAAAAAAAAAAAAAAAAAAAAAAAAAAAAAAAAAAAAAAAAAAAAAAAAAAAAAAAAAAAAAAAAAAAAAAAAAAAAAAAAAAAAAAAAAAAAAAAAAAAAAAAAAAAAAAAAAAAAAAAAAAAAAAAAAAAAAAAAAAAAAAAAAAAAAAAAAAAAAAAAAAAAAAAAAAAAAAAAAAAAAAAAAAAAAAAAAAAAAAAAAAAAAAAAAAAAAAAAAAAAAAAAAAAAAAAAAAAAAAAAAAAAAAAAAAAAAAAAAAAAAAAAAAAAAAAAAAAAAAAAAAAAAAAAAAAAAAAAAAAAAAAAAAAAAAAAAAAAAAAAAAAAAAAAAAAAAAAAAAAAAAAAAAAAAAAAAAAAAAAAAAAAAAAAAAAAAAAAAAAAAAAAAAAAAAAAAAAAAAAAAAAAAAAAAAAAAAAAAAAAAAAAAAAAAAAAAAAAAAAAAAAAAAAAAAAAAAAAAAAAAAAAAAAAAAAAAAAAAAAAAAAAAAAAAAAAAAAAAAAAAAAAAAAAAAAAAAAAAAAAAAAAAAAAAAAAAAAAAAAAAAAAAAAAAAAAAAAAAAAAAAAAAAAAAAAAAAAAAAAAAAAAAAAAAAAAAAAAAAAAAAAAAAAAAAAAAAAAAAAAAAAAAAAAAAAAAAAAAAAAAAAAAAAAAAAAAAAAAAAAAAAAAAAAAAAAAAAAAAAAAAAAAAAAAAAAAAAAAAAAAAAAAAAAAAAAAAAAAAAAAAAAAAAAAAAAAAAAAAAAAAAAAAAAAAAAAAAAAAAAAAAAAAAAAAAAAAAAAAAAAAAAAAAAAAAAAAAAAAAAAAAAAAAAAAAAAAAAAAAAAAAAAAAAAAAAAAAAAAAAAAAAAAAAAAAAAAAAAAAAAAAAAAAAAAAAAAAAAAAAAAAAAAAAAAAAAAAAAAAAAAAAAAAAAAAAAAAAAAAAAAAAAAAAAAAAAAAAAAAAAAAAAAAAAAAAAAAAAAAAAAAAAAAAAAAAAAAAAAAAAAAAAAAAAAAAAAAAAAAAAAAAAAAAAAAAAAAAAAAAAAAAAAAAAAAAAAAAAAAAAAAAAAAAAAAAAAAAAAAAAAAAAAAAAAAAAAAAAAAAAAAAAAAAAAAAAAAAAAAAAAAAAAAAAAAAAAAAAAAAAAAAAAAAAAAAAAAAAAAAAAAAAAAAAAAAAAAAAAAAAAAAAAAAAAAAAAAAAAAAAAAAAAAAAAAAAAAAAAAAAAAAAAAAAAAAAAAAAAAAAAAAAAAAAAAAAAAAAAAAAAAAAAAAAAAAAAAAAAAAAAAAAAAAAAAAAAAAAAAAAAAAAAAAAAAAAAAAAAAAAAAAAAAAAAAAAAAAAAAAAAAAAAAAAAAAAAAAAAAAAAAAAAAAAAAAAAAAAAAAAAAAAAAAAAAAAAAAAAAAAAAAAAAAAAAAAAAAAAAAAAAAAAAAAAAAAAAAAAAAAAAAAAAAAAAAAAAAAAAAAAAAAAAAAAAAAAAAAAAAAAAAAAAAAAAAAAAAAAAAAAAAAAAAAAAAAAAAAAAAAAAAAAAAAAAAAAAAAAAAAAAAAAAAAAAAAAAAAAAAAAAAAAAAAAAAAAAAAAAAAAAAAAAAAAAAAAAAAAAAAAAAAAAAAAAAAAAAAAAAAAAAAAAAAAAAAAAAAAAAAAAAAAAAAAAAAAAAAAAAAAAAAAAAAAAAAAAAAAAAAAAAAAAAAAAAAAAAAAAAAAAAAAAAAAAAAAAAAAAAAAAAAAAAAAAAAAAAAAAAAAAAAAAAAAAAAAAAAAAAAAAAAAAAAAAAAAAAAAAAAAAAAAAAAAAAAAAAAAAAAAAAAAAAAAAAAAAAAAAAAAAAAAAAAAAAAAAAAAAAAAAAAAAAAAAAAAAAAAAAAAAAAAAAAAAAAAAAAAAAAAAAAAAAAAAAAAAAAAAAAAAAAAAAAAAAAAAAAAAAAAAAAAAAAAAAAAAAAAAAAAAAAAAAAAAAAAAAAAAAAAAAAAAAAAAAAAAAAAAAAAAAAAAAAAAAAAAAAAAAAAAAAAAAAAAAAAAAAAAAAAAAAAAAAAAAAAAAAAAAAAAAAAAAAAAAAAAAAAAAAAAAAAAAAAAAAAAAAAAAAAAAAAAAAAAAAAAAAAAAAAAAAAAAAAAAAAAAAAAAAAAAAAAAAAAAAAAAAAAAAAAAAAAAAAAAAAAAAAAAAAAAAAAAAAAAAAAAAAAAAAAAAAAAAAAAAAAAAAAAAAAAAAAAAAAAAAAAAAAAAAAAAAAAAAAAAAAAAAAAAAAAAAAAAAAAAAAAAAAAAAAAAAAAAAAAAAAAAAAAAAAAAAAAAAAAAAAAAAAAAAAAAAAAAAAAAAAAAAAAAAAAAAAAAAAAAAAAAAAAAAAAAAAAAAAAAAAAAAAAAAAAAAAAAAAAAAAAAAAAAAAAAAAAAAAAAAAAAAAAAAAAAAAAAAAAAAAAAAAAAAAAAAAAAAAAAAAAAAAAAAAAAAAAAAAAAAAAAAAAAAAAAAAAAAAAAAAAAAAAAAAAAAAAAAAAAAAAAAAAAAAAAAAAAAAAAAAAAAAAAAAAAAAAAAAAAAAAAAAAAAAAAAAAAAAAAAAAAAAAAAAAAAAAAAAAAAAAAAAAAAAAAAAAAAAAAAAAAAAAAAAAAAAAAAAAAAAAAAAAAAAAAAAAAAAAAAAAAAAAAAAAAAAAAAAAAAAAAAAAAAAAAAAAAAAAAAAAAAAAAAAAAAAAAAAAAAAAAAAAAAAAAAAAAAAAAAAAAAAAAAAAAAAAAAAAAAAAAAAAAAAAAAAAAAAAAAAAAAAAAAAAAAAAAAAAAAAAAAAAAAAAAAAAAAAAAAAAAAAAAAAAAAAAAAAAAAAAAAAAAAAAAAAAAAAAAAAAAAAAAAAAAAAAAAAAAAAAAAAAAAAAAAAAAAAAAAAAAAAAAAAAAAAAAAAAAAAAAAAAAAAAAAAAAAAAAAAAAAAAAAAAAAAAAAAAAAAAAAAAAAAAAAAAAAAAAAAAAAAAAAAAAAAAAAAAAAAAAAAAAAAAAAAAAAAAAAAAAAAAAAAAAAAAAAAAAAAAAAAAAAAAAAAAAAAAAAAAAAAAAAAAAAAAAAAAAAAAAAAAAAAAAAAAAAAAAAAAAAAAAAAAAAAAAAAAAAAAAAAAAAAAAAAAAAAAAAAAAAAAAAAAAAAAAAAAAAAAAAAAAAAAAAAAAAAAAAAAAAAAAAAAAAAAAAAAAAAAAAAAAAAAAAAAAAAAAAAAAAAAAAAAAAAAAAAAAAAAAAAAAAAAAAAAAAAAAAAAAAAAAAAAAAAAAAAAAAAAAAAAAAAAAAAAAAAAAAAAAAAAAAAAAAAAAAAAAAAAAAAAAAAAAAAAAAAAAAAAAAAAAAAAAAAAAAAAAAAAAAAAAAAAAAAAAAAAAAAAAAAAAAAAAAAAAAAAAAAAAAAAAAAAAAAAAAAAAAAAAAAAAAAAAAAAAAAAAAAAAAAAAAAAAAAAAAAAAAAAAAAAAAAAAAAAAAAAAAAAAAAAAAAAAAAAAAAAAAAAAAAAAAAAAAAAAAAAAAAAAAAAAAAAAAAAAAAAAAAAAAAAAAAAAAAAAAAAAAAAAAAAAAAAAAAAAAAAAAAAAAAAAAAAAAAAAAAAAAAAAAAAAAAAAAAAAAAAAAAAAAAAAAAAAAAAAAAAAAAAAAAAAAAAAAAAAAAAAAAAAAAAAAAAAAAAAAAAAAAAAAAAAAAAAAAAAAAAAAAAAAAAAAAAAAAAAAAAAAAAAAAAAAAAAAAAAAAAAAAAAAAAAAAAAAAAAAAAAAAAAAAAAAAAAAAAAAAAAAAAAAAAAAAAAAAAAAAAAAAAAAAAAAAAAAAAAAAAAAAAAAAAAAAAAAAAAAAAAAAAAAAAAAAAAAAAAAAAAAAAAAAAAAAAAAAAAAAAAAAAAAAAAAAAAAAAAAAAAAAAAAAAAAAAAAAAAAAAAAAAAAAAAAAAAAAAAAAAAAAAAAAAAAAAAAAAAAAAAAAAAAAAAAAAAAAAAAAAAAAAAAAAAAAAAAAAAAAAAAAAAAAAAAAAAAAAAAAAAAAAAAAAAAAAAAAAAAAAAAAAAAAAAAAAAAAAAAAAAAAAAAAAAAAAAAAAAAAAAAAAAAAAAAAAAAAAAAAAAAAAAAAAAAAAAAAAAAAAAAAAAAAAAAAAAAAAAAAAAAAAAAAAAAAAAAAAAAAAAAAAAAAAAAAAAAAAAAAAAAAAAAAAAAAAAAAAAAAAAAAAAAAAAAAAAAAAAAAAAAAAAAAAAAAAAAAAAAAAAAAAAAAPZYQDPtE5Op+Z5sUqGsaSIJ6ExruzDcmed06RJ/fn3/nLt3FmCfRmGlELpUy8v7uQ1yOidh8JIzOH2gvgZhZIGtjvc=</c2pa:manifest></metadata>
  <defs>
    <linearGradient id="rim-shared" x1="0" y1="0" x2="0" y2="1">
      <stop offset="0%" stop-color="#eef1fa"/>
      <stop offset="55%" stop-color="#aab4d4"/>
      <stop offset="100%" stop-color="#767fa0"/>
    </linearGradient>
    <linearGradient id="body-dr" x1="0" y1="0" x2="0" y2="1">
      <stop offset="0%" stop-color="#ff7a68"/>
      <stop offset="100%" stop-color="#c41f30"/>
    </linearGradient>
    <linearGradient id="glass-dr" x1="0" y1="0" x2="0" y2="1">
      <stop offset="0%" stop-color="#d7e4fb"/>
      <stop offset="100%" stop-color="#8ba6e0"/>
    </linearGradient>
    <linearGradient id="sheen-dr" x1="0" y1="0" x2="0.35" y2="1">
      <stop offset="0%" stop-color="#ffffff" stop-opacity="0.65"/>
      <stop offset="35%" stop-color="#ffffff" stop-opacity="0.08"/>
      <stop offset="100%" stop-color="#ffffff" stop-opacity="0"/>
    </linearGradient>
    <radialGradient id="shadow-dr" cx="50%" cy="50%" r="50%">
      <stop offset="0%" stop-color="#10162b" stop-opacity="0.24"/>
      <stop offset="100%" stop-color="#10162b" stop-opacity="0"/>
    </radialGradient>
    <radialGradient id="arch-dr" cx="50%" cy="35%" r="65%">
      <stop offset="0%" stop-color="#05070f" stop-opacity="0.38"/>
      <stop offset="100%" stop-color="#05070f" stop-opacity="0"/>
    </radialGradient>
    <linearGradient id="rim-dr" x1="0" y1="0" x2="0" y2="1">
      <stop offset="0%" stop-color="#e4e9f7"/>
      <stop offset="55%" stop-color="#aab4d4"/>
      <stop offset="100%" stop-color="#767fa0"/>
    </linearGradient>
  </defs>

  <ellipse cx="400" cy="362" rx="305" ry="24" fill="url(#shadow-dr)"/>

  <ellipse cx="210" cy="316" rx="72" ry="30" fill="url(#arch-dr)"/>
  <ellipse cx="590" cy="316" rx="72" ry="30" fill="url(#arch-dr)"/>

  <path d="M90 305 C90 275 108 255 145 245 L205 200 L245 155 C262 138 288 128 315 128 L470 128 C495 128 515 140 528 160 L565 210 L640 240 C672 250 705 262 705 292 L705 305 C705 314 697 320 688 320 L107 320 C98 320 90 314 90 305 Z" fill="url(#body-dr)" stroke="#7a0f1c" stroke-width="3.5" stroke-linejoin="round"/>

  <path d="M90 305 C90 275 108 255 145 245 L205 200 L245 155 C262 138 288 128 315 128 L470 128 C495 128 515 140 528 160 L565 210 L640 240 C672 250 705 262 705 292 L705 305 C705 314 697 320 688 320 L107 320 C98 320 90 314 90 305 Z" fill="url(#sheen-dr)"/>

  <path d="M258 198 L292 158 C302 146 318 138 334 138 L440 138 C456 138 470 146 480 160 L508 198 C480 190 440 186 384 186 C328 186 286 190 258 198 Z" fill="url(#body-dr)" opacity="0.001"/>

  <path d="M266 196 L296 162 C304 152 316 146 328 146 L434 146 C446 146 456 152 464 163 L490 196 C440 190 380 187 378 187 C340 187 296 190 266 196 Z" fill="url(#glass-dr)" stroke="#c41f30" stroke-width="2.5" stroke-linejoin="round"/>

  <!-- door seam + handle -->
  <path d="M420 200 C440 240 440 275 425 312" stroke="#7a0f1c" stroke-width="3" opacity="0.5" fill="none"/><path d="M560 175 L610 218" stroke="#5a0a14" stroke-width="10" stroke-linecap="round"/>

  <!-- lights -->
  <rect x="108" y="282" width="14" height="20" rx="4" fill="#e42b3c"/>
  <rect x="108" y="282" width="14" height="20" rx="4" fill="none" stroke="#8c0f1c" stroke-width="1.5"/>
  <rect x="676" y="282" width="16" height="18" rx="4" fill="#fff3c4"/>
  <rect x="676" y="282" width="16" height="18" rx="4" fill="none" stroke="#d1a83a" stroke-width="1.5"/>

  <!-- side accent stripe -->
  <path d="M90 298 L705 298 L705 308 L90 308 Z M300 132 L470 132 L470 140 L300 140 Z" fill="#7a0f1c" opacity="0.9"/>

  <!-- wheels -->
  <g>
    <circle cx="210" cy="330" r="53" fill="#12162a"/>
    <circle cx="210" cy="330" r="53" fill="none" stroke="#000000" stroke-width="2" opacity="0.4"/>
    <circle cx="210" cy="330" r="34" fill="#232840"/>
    <circle cx="210" cy="330" r="30" fill="url(#rim-shared)"/>
    <rect x="205.5" y="301" width="9" height="16" rx="4" fill="#4c5578" transform="rotate(0.0 210 330)"/><rect x="205.5" y="301" width="9" height="16" rx="4" fill="#4c5578" transform="rotate(72.0 210 330)"/><rect x="205.5" y="301" width="9" height="16" rx="4" fill="#4c5578" transform="rotate(144.0 210 330)"/><rect x="205.5" y="301" width="9" height="16" rx="4" fill="#4c5578" transform="rotate(216.0 210 330)"/><rect x="205.5" y="301" width="9" height="16" rx="4" fill="#4c5578" transform="rotate(288.0 210 330)"/>
    <circle cx="210" cy="330" r="12" fill="#eef1fa"/>
    <circle cx="210" cy="330" r="12" fill="none" stroke="#8f99bd" stroke-width="1.5"/>
    <circle cx="194" cy="312" r="9" fill="#ffffff" opacity="0.35"/>
  </g>
  <g>
    <circle cx="590" cy="330" r="53" fill="#12162a"/>
    <circle cx="590" cy="330" r="53" fill="none" stroke="#000000" stroke-width="2" opacity="0.4"/>
    <circle cx="590" cy="330" r="34" fill="#232840"/>
    <circle cx="590" cy="330" r="30" fill="url(#rim-shared)"/>
    <rect x="585.5" y="301" width="9" height="16" rx="4" fill="#4c5578" transform="rotate(0.0 590 330)"/><rect x="585.5" y="301" width="9" height="16" rx="4" fill="#4c5578" transform="rotate(72.0 590 330)"/><rect x="585.5" y="301" width="9" height="16" rx="4" fill="#4c5578" transform="rotate(144.0 590 330)"/><rect x="585.5" y="301" width="9" height="16" rx="4" fill="#4c5578" transform="rotate(216.0 590 330)"/><rect x="585.5" y="301" width="9" height="16" rx="4" fill="#4c5578" transform="rotate(288.0 590 330)"/>
    <circle cx="590" cy="330" r="12" fill="#eef1fa"/>
    <circle cx="590" cy="330" r="12" fill="none" stroke="#8f99bd" stroke-width="1.5"/>
    <circle cx="574" cy="312" r="9" fill="#ffffff" opacity="0.35"/>
  </g>
</svg>
