<svg xmlns="http://www.w3.org/2000/svg" viewBox="0 0 800 420" width="800" height="420" xmlns:c2pa="http://c2pa.org/manifest"><metadata><c2pa:manifest>AAAWgmp1bWIAAAAeanVtZGMycGEAEQAQgAAAqgA4m3EDYzJwYQAAABZcanVtYgAAAEdqdW1kYzJtYQARABCAAACqADibcQN1cm46YzJwYTo3OTFhN2M5Mi0zMTk1LTQ1NWQtODFiMi0zNTU0ZjY5NTMzNmQAAAADl2p1bWIAAAApanVtZGMyYXMAEQAQgAAAqgA4m3EDYzJwYS5hc3NlcnRpb25zAAAAALxqdW1iAAAARGp1bWRjYm9yABEAEIAAAKoAOJtxE2MycGEuaW5ncmVkaWVudC52MwAAAAAYYzJzaAv/aB1znkUIV6/4ZA8oW+sAAABwY2JvcqNpZGM6Zm9ybWF0bWltYWdlL3N2Zyt4bWxqaW5zdGFuY2VJRHgseG1wOmlpZDphMzdmOTdiNS1iY2JlLTRkNGItOTNkNy1jMWFiNDc3NTFjMDFscmVsYXRpb25zaGlwaHBhcmVudE9mAAAB4mp1bWIAAABBanVtZGNib3IAEQAQgAAAqgA4m3ETYzJwYS5hY3Rpb25zLnYyAAAAABhjMnNo/jRZlAse836d+vQfoocuMAAAAZljYm9yomdhY3Rpb25zgqJmYWN0aW9ua2MycGEub3BlbmVkanBhcmFtZXRlcnOha2luZ3JlZGllbnRzgaJjdXJseC1zZWxmI2p1bWJmPWMycGEuYXNzZXJ0aW9ucy9jMnBhLmluZ3JlZGllbnQudjNkaGFzaFggeBWibtvDSH12HHgEfYU4dWIxBXVvGBk+RAkU0+OHWJukZmFjdGlvbngdY29tLmFudGhyb3BpYy5jbGF1ZGUucHJvdmlkZWRqcGFyYW1ldGVyc6F4H2NvbS5hbnRocm9waWMub3JpZ2luLWNvbmZpZGVuY2VndW5rbm93bmtkZXNjcmlwdGlvbnhmQ2xhdWRlIHByb3ZpZGVkIHRoaXMgZmlsZSBhdCB0aGUgcmVxdWVzdCBvZiBhIHVzZXIgYW5kIG1heSBoYXZlIGNyZWF0ZWQgb3IgbW9kaWZpZWQgdGhlIGZpbGUgY29udGVudHMubXNvZnR3YXJlQWdlbnShZG5hbWVmQ2xhdWRlcmFsbEFjdGlvbnNJbmNsdWRlZPUAAADIanVtYgAAAEBqdW1kY2JvcgARABCAAACqADibcRNjMnBhLmhhc2guZGF0YQAAAAAYYzJzaNlB8C17frzzggkrIcfw/bwAAACAY2JvcqVjYWxnZnNoYTI1NmNwYWRNAAAAAAAAAAAAAAAAAGRoYXNoWCCf4FlqNZUnM8tjwvh3dT2lYoFsN3orIr1IpMvai+WVoGRuYW1lbmp1bWJmIG1hbmlmZXN0amV4Y2x1c2lvbnOBomVzdGFydBiWZmxlbmd0aBkeBAAAAj5qdW1iAAAAJ2p1bWRjMmNsABEAEIAAAKoAOJtxA2MycGEuY2xhaW0udjIAAAACD2Nib3KlY2FsZ2ZzaGEyNTZpc2lnbmF0dXJleE1zZWxmI2p1bWJmPS9jMnBhL3VybjpjMnBhOjc5MWE3YzkyLTMxOTUtNDU1ZC04MWIyLTM1NTRmNjk1MzM2ZC9jMnBhLnNpZ25hdHVyZWppbnN0YW5jZUlEeCx4bXA6aWlkOmFlZmVlMjRjLTA0OWEtNDkzOC1hNTgxLWNiNDIxZDJiYTE0NXJjcmVhdGVkX2Fzc2VydGlvbnODomN1cmx4LXNlbGYjanVtYmY9YzJwYS5hc3NlcnRpb25zL2MycGEuaW5ncmVkaWVudC52M2RoYXNoWCB4FaJu28NIfXYceAR9hTh1YjEFdW8YGT5ECRTT44dYm6JjdXJseCpzZWxmI2p1bWJmPWMycGEuYXNzZXJ0aW9ucy9jMnBhLmFjdGlvbnMudjJkaGFzaFggsdPVSJj9clDEh1zcCiUtWH2QExw6iqVVIfKT4eyV2qaiY3VybHgpc2VsZiNqdW1iZj1jMnBhLmFzc2VydGlvbnMvYzJwYS5oYXNoLmRhdGFkaGFzaFgg5szeN5Uq3asU7NEIodmOooS69lm7rE3YY1Boo9oWEgd0Y2xhaW1fZ2VuZXJhdG9yX2luZm+jZG5hbWVvQW50aHJvcGljIEZpbGVzZ3ZlcnNpb25lMS4wLjBrc3BlY1ZlcnNpb25lMi40LjAAABA4anVtYgAAAChqdW1kYzJjcwARABCAAACqADibcQNjMnBhLnNpZ25hdHVyZQAAABAIY2JvctKEWQISogEmGCFZAgowggIGMIIBjaADAgECAhRA5aAK7sI50L64g/oGQgU9Z1UTADAKBggqhkjOPQQDAzBJMRcwFQYDVQQKEw5BbnRocm9waWMsIFBCQzEuMCwGA1UEAxMlQW50aHJvcGljIENvbnRlbnQgQ3JlZGVudGlhbHMgUm9vdCBDQTAeFw0yNjA4MDcxODQzNTZaFw0yODA4MDYxOTQzNTZaMEQxFzAVBgNVBAoTDkFudGhyb3BpYywgUEJDMSkwJwYDVQQDEyBBbnRocm9waWMgQ2xhdWRlIENvbnRlbnQgU2lnbmluZzBZMBMGByqGSM49AgEGCCqGSM49AwEHA0IABJh6CmvLUBgFFNU0vUKlOVtE6djd17L5SuwX0LemFisBM3dkd/3cyjxFA3Qo5S46fX0/ihY0VZ7mfb9KF703t5OjWDBWMA4GA1UdDwEB/wQEAwIHgDAVBgNVHSUEDjAMBgorBgEEAYPoXgIBMAwGA1UdEwEB/wQCMAAwHwYDVR0jBBgwFoAUzlHiBIFOZFsj+OPEz5o+nMHXXMIwCgYIKoZIzj0EAwMDZwAwZAIwMXMdFJ4BetLLVY7ORuE9noqbbAZOZn/aArXyTwFAZfKrPzxF2vPoJNf1+UCdg1XGAjBwX1zd9WGqYkqmL5SFqw1QySjr1zJfpJM9+1rdDwSPLMOPOjKuiXjoU/pUUeG9RwmhY3BhZFkNngAAAAAAAAAAAAAAAAAAAAAAAAAAAAAAAAAAAAAAAAAAAAAAAAAAAAAAAAAAAAAAAAAAAAAAAAAAAAAAAAAAAAAAAAAAAAAAAAAAAAAAAAAAAAAAAAAAAAAAAAAAAAAAAAAAAAAAAAAAAAAAAAAAAAAAAAAAAAAAAAAAAAAAAAAAAAAAAAAAAAAAAAAAAAAAAAAAAAAAAAAAAAAAAAAAAAAAAAAAAAAAAAAAAAAAAAAAAAAAAAAAAAAAAAAAAAAAAAAAAAAAAAAAAAAAAAAAAAAAAAAAAAAAAAAAAAAAAAAAAAAAAAAAAAAAAAAAAAAAAAAAAAAAAAAAAAAAAAAAAAAAAAAAAAAAAAAAAAAAAAAAAAAAAAAAAAAAAAAAAAAAAAAAAAAAAAAAAAAAAAAAAAAAAAAAAAAAAAAAAAAAAAAAAAAAAAAAAAAAAAAAAAAAAAAAAAAAAAAAAAAAAAAAAAAAAAAAAAAAAAAAAAAAAAAAAAAAAAAAAAAAAAAAAAAAAAAAAAAAAAAAAAAAAAAAAAAAAAAAAAAAAAAAAAAAAAAAAAAAAAAAAAAAAAAAAAAAAAAAAAAAAAAAAAAAAAAAAAAAAAAAAAAAAAAAAAAAAAAAAAAAAAAAAAAAAAAAAAAAAAAAAAAAAAAAAAAAAAAAAAAAAAAAAAAAAAAAAAAAAAAAAAAAAAAAAAAAAAAAAAAAAAAAAAAAAAAAAAAAAAAAAAAAAAAAAAAAAAAAAAAAAAAAAAAAAAAAAAAAAAAAAAAAAAAAAAAAAAAAAAAAAAAAAAAAAAAAAAAAAAAAAAAAAAAAAAAAAAAAAAAAAAAAAAAAAAAAAAAAAAAAAAAAAAAAAAAAAAAAAAAAAAAAAAAAAAAAAAAAAAAAAAAAAAAAAAAAAAAAAAAAAAAAAAAAAAAAAAAAAAAAAAAAAAAAAAAAAAAAAAAAAAAAAAAAAAAAAAAAAAAAAAAAAAAAAAAAAAAAAAAAAAAAAAAAAAAAAAAAAAAAAAAAAAAAAAAAAAAAAAAAAAAAAAAAAAAAAAAAAAAAAAAAAAAAAAAAAAAAAAAAAAAAAAAAAAAAAAAAAAAAAAAAAAAAAAAAAAAAAAAAAAAAAAAAAAAAAAAAAAAAAAAAAAAAAAAAAAAAAAAAAAAAAAAAAAAAAAAAAAAAAAAAAAAAAAAAAAAAAAAAAAAAAAAAAAAAAAAAAAAAAAAAAAAAAAAAAAAAAAAAAAAAAAAAAAAAAAAAAAAAAAAAAAAAAAAAAAAAAAAAAAAAAAAAAAAAAAAAAAAAAAAAAAAAAAAAAAAAAAAAAAAAAAAAAAAAAAAAAAAAAAAAAAAAAAAAAAAAAAAAAAAAAAAAAAAAAAAAAAAAAAAAAAAAAAAAAAAAAAAAAAAAAAAAAAAAAAAAAAAAAAAAAAAAAAAAAAAAAAAAAAAAAAAAAAAAAAAAAAAAAAAAAAAAAAAAAAAAAAAAAAAAAAAAAAAAAAAAAAAAAAAAAAAAAAAAAAAAAAAAAAAAAAAAAAAAAAAAAAAAAAAAAAAAAAAAAAAAAAAAAAAAAAAAAAAAAAAAAAAAAAAAAAAAAAAAAAAAAAAAAAAAAAAAAAAAAAAAAAAAAAAAAAAAAAAAAAAAAAAAAAAAAAAAAAAAAAAAAAAAAAAAAAAAAAAAAAAAAAAAAAAAAAAAAAAAAAAAAAAAAAAAAAAAAAAAAAAAAAAAAAAAAAAAAAAAAAAAAAAAAAAAAAAAAAAAAAAAAAAAAAAAAAAAAAAAAAAAAAAAAAAAAAAAAAAAAAAAAAAAAAAAAAAAAAAAAAAAAAAAAAAAAAAAAAAAAAAAAAAAAAAAAAAAAAAAAAAAAAAAAAAAAAAAAAAAAAAAAAAAAAAAAAAAAAAAAAAAAAAAAAAAAAAAAAAAAAAAAAAAAAAAAAAAAAAAAAAAAAAAAAAAAAAAAAAAAAAAAAAAAAAAAAAAAAAAAAAAAAAAAAAAAAAAAAAAAAAAAAAAAAAAAAAAAAAAAAAAAAAAAAAAAAAAAAAAAAAAAAAAAAAAAAAAAAAAAAAAAAAAAAAAAAAAAAAAAAAAAAAAAAAAAAAAAAAAAAAAAAAAAAAAAAAAAAAAAAAAAAAAAAAAAAAAAAAAAAAAAAAAAAAAAAAAAAAAAAAAAAAAAAAAAAAAAAAAAAAAAAAAAAAAAAAAAAAAAAAAAAAAAAAAAAAAAAAAAAAAAAAAAAAAAAAAAAAAAAAAAAAAAAAAAAAAAAAAAAAAAAAAAAAAAAAAAAAAAAAAAAAAAAAAAAAAAAAAAAAAAAAAAAAAAAAAAAAAAAAAAAAAAAAAAAAAAAAAAAAAAAAAAAAAAAAAAAAAAAAAAAAAAAAAAAAAAAAAAAAAAAAAAAAAAAAAAAAAAAAAAAAAAAAAAAAAAAAAAAAAAAAAAAAAAAAAAAAAAAAAAAAAAAAAAAAAAAAAAAAAAAAAAAAAAAAAAAAAAAAAAAAAAAAAAAAAAAAAAAAAAAAAAAAAAAAAAAAAAAAAAAAAAAAAAAAAAAAAAAAAAAAAAAAAAAAAAAAAAAAAAAAAAAAAAAAAAAAAAAAAAAAAAAAAAAAAAAAAAAAAAAAAAAAAAAAAAAAAAAAAAAAAAAAAAAAAAAAAAAAAAAAAAAAAAAAAAAAAAAAAAAAAAAAAAAAAAAAAAAAAAAAAAAAAAAAAAAAAAAAAAAAAAAAAAAAAAAAAAAAAAAAAAAAAAAAAAAAAAAAAAAAAAAAAAAAAAAAAAAAAAAAAAAAAAAAAAAAAAAAAAAAAAAAAAAAAAAAAAAAAAAAAAAAAAAAAAAAAAAAAAAAAAAAAAAAAAAAAAAAAAAAAAAAAAAAAAAAAAAAAAAAAAAAAAAAAAAAAAAAAAAAAAAAAAAAAAAAAAAAAAAAAAAAAAAAAAAAAAAAAAAAAAAAAAAAAAAAAAAAAAAAAAAAAAAAAAAAAAAAAAAAAAAAAAAAAAAAAAAAAAAAAAAAAAAAAAAAAAAAAAAAAAAAAAAAAAAAAAAAAAAAAAAAAAAAAAAAAAAAAAAAAAAAAAAAAAAAAAAAAAAAAAAAAAAAAAAAAAAAAAAAAAAAAAAAAAAAAAAAAAAAAAAAAAAAAAAAAAAAAAAAAAAAAAAAAAAAAAAAAAAAAAAAAAAAAAAAAAAAAAAAAAAAAAAAAAAAAAAAAAAAAAAAAAAAAAAAAAAAAAAAAAAAAAAAAAAAAAAAAAAAAAAAAAAAAAAAAAAAAAAAAAAAAAAAAAAAAAAAAAAAAAAAAAAAAAAAAAAAAAAAAAAAAAAAAAAAAAAAAAAAAAAAAAAAAAAAAAAAAAAAAAAAAAAAAAAAAAAAAAAAAAAAAAAAAAAAAAAAAAAAAAAAAAAAAAAAAAAAAAAAAAAAAAAAAAAAAAAAAAAAAAAAAAAAAAAAAAAAAAAAAAAAAAAAAAAAAAAAAAAAAAAAAAAAAAAAAAAAAAAAAAAAAAAAAAAAAAAAAAAAAAAAAAAAAAAAAAAAAAAAAAAAAAAAAAAAAAAAAAAAAAAAAAAAAAAAAAAAAAAAAAAAAAAAAAAAAAAAAAAAAAAAAAAAAAAAAAAAAAAAAAAAAAAAAAAAAAAAAAAAAAAAAAAAAAAAAAAAAAAAAAAAAAAAAAAAAAAAAAAAAAAAAAAAAAAAAAAAAAAAAAAAAAAAAAAAAAAAAAAAAAAAAAAAAAAAAAAAAAAAAAAAAAAAAAAAAAAAAAAAAAAAAAAAAAAAAAAAAAAAAAAAAAAAAAAAAAAAAAAAAAAAAAAAAAAAAAAAAAAAAAAAAAAAAAAAAAAAAAAAAAAAAAAAAAAAAAAAAAAAAAAAAAAAAAAAAAAAAAAAAAAAAAAAAAAAAAAAAAAAAAAAAAAAAAAAAAAAAAAAAAAAAAAAAAAAAAAAAAAAAAAAAAAAAAAAAAAAAAAAAAAAAAAAAAAAAAAAAAAAAAAAAAAAAAAAAAAAAAAAAAAAAAAAAAAAAAAAAAAAAAAAAAAAAAAAAAAAAAAAAAAAAAAAAAAAAAAAAAAAAAAAAAAAAAAAAAAAAAAAAAAAAAAAAAAAAAAAAAAAAAAAAAAAAAAAAAAAAAAAAAAAAAAAAAAAAAAAAAAAAAAAAAAAAAAAAAAAAAAAAAAAAAAAAAAAAAAAAAAAAAAAAAAAAAAAAAAAAAAAAAAAAAAAAAAAAAAAAAAAAAAAAAAAAAAAAAAAAAAAAAAAAAAAAAAAAAAAAAAAAAAAAAAAAAAAAAAAAAAAAAAAAAAAAAAAAAAAAAAAAAAAAAAAAAAAAAAAAAAAAAAAAAAAAAAAAAAAAAAAAAAAAAAAAAAAAAAAAAAAAAAAAAAAAAAAAAAAAAAAAAAAAAAAAAAAAAAAAAAAAAAAAAAAAAAAAAAAAAAAAAAAAAAAAAAAAAAAAAAAAAAAAAAAAAAAAAAAAAAAAAAAAAAAAAAAAAAAAAAAAAAAAAAAAAAAAAAAAAAAAAAAAAAAAAAAAAAAAAAAAAAAAAAAAAAAAAAAAAAAAAAAAAAAAAAAAAAAAAAAAAAAAAAAAAAAAAAAAAAAAAAAAAAAAAAAAAAAAAAAAAAAAAAAAAAAAAAAAAAAAAAAAAAAAAAAAAAAAAAAAAAAAAAAAAAAAAAAAAAAAAAAAAAAAAAAAAAAAAAAAAAAAAAAAAAAAAAAAAAAAAAAAAPZYQN5d+D3i5wMDXHbE4KmrD74x7WMZkmJOF3OVBs8EtgHiHxJcjrmyS1EJxHGaQiWTd8H/Df5y7oqBz0DstxhWTqA=</c2pa:manifest></metadata>
  <defs>
    <linearGradient id="rim-shared" x1="0" y1="0" x2="0" y2="1">
      <stop offset="0%" stop-color="#f2f4fb"/>
      <stop offset="55%" stop-color="#aab4d4"/>
      <stop offset="100%" stop-color="#6b7395"/>
    </linearGradient>
    <linearGradient id="body-pickupbl" x1="0" y1="0" x2="0" y2="1">
      <stop offset="0%" stop-color="#9ba0b4"/>
      <stop offset="28%" stop-color="#4a5378"/>
      <stop offset="70%" stop-color="#414969"/>
      <stop offset="100%" stop-color="#0d0f1a"/>
    </linearGradient>
    <linearGradient id="glass-pickupbl" x1="0" y1="0" x2="0.15" y2="1">
      <stop offset="0%" stop-color="#eaf1ff"/>
      <stop offset="45%" stop-color="#b7c9ea"/>
      <stop offset="100%" stop-color="#71829e"/>
    </linearGradient>
    <linearGradient id="sheen-pickupbl" x1="0" y1="0" x2="0.3" y2="1">
      <stop offset="0%" stop-color="#ffffff" stop-opacity="0.78"/>
      <stop offset="22%" stop-color="#ffffff" stop-opacity="0.18"/>
      <stop offset="48%" stop-color="#ffffff" stop-opacity="0.05"/>
      <stop offset="100%" stop-color="#ffffff" stop-opacity="0"/>
    </linearGradient>
    <radialGradient id="shadow-pickupbl" cx="50%" cy="50%" r="50%">
      <stop offset="0%" stop-color="#10162b" stop-opacity="0.26"/>
      <stop offset="100%" stop-color="#10162b" stop-opacity="0"/>
    </radialGradient>
    <radialGradient id="arch-pickupbl" cx="50%" cy="35%" r="65%">
      <stop offset="0%" stop-color="#05070f" stop-opacity="0.4"/>
      <stop offset="100%" stop-color="#05070f" stop-opacity="0"/>
    </radialGradient>
    <linearGradient id="rim-pickupbl" x1="0" y1="0" x2="0" y2="1">
      <stop offset="0%" stop-color="#f2f4fb"/>
      <stop offset="55%" stop-color="#aab4d4"/>
      <stop offset="100%" stop-color="#6b7395"/>
    </linearGradient>
  </defs>

  <ellipse cx="400" cy="362" rx="305" ry="24" fill="url(#shadow-pickupbl)"/>

  <ellipse cx="225" cy="316" rx="72" ry="30" fill="url(#arch-pickupbl)"/>
  <ellipse cx="605" cy="316" rx="72" ry="30" fill="url(#arch-pickupbl)"/>

  <path d="M95 300 L95 258 C95 250 101 245 110 245 L420 245 C430 245 434 240 440 233 L458 200 C466 176 480 158 500 145 C516 135 535 130 555 130 L648 130 C663 130 676 138 683 151 L700 190 C709 195 712 210 712 232 L712 300 C712 312 703 320 691 320 L111 320 C98 320 95 312 95 300 Z" fill="url(#body-pickupbl)" stroke="#0d0f1a" stroke-width="3.5" stroke-linejoin="round"/>

  <path d="M95 300 L95 258 C95 250 101 245 110 245 L420 245 C430 245 434 240 440 233 L458 200 C466 176 480 158 500 145 C516 135 535 130 555 130 L648 130 C663 130 676 138 683 151 L700 190 C709 195 712 210 712 232 L712 300 C712 312 703 320 691 320 L111 320 C98 320 95 312 95 300 Z" fill="url(#sheen-pickupbl)"/>

  

  <path d="M470 202 L486 168 C494 151 511 141 529 141 L616 141 C630 141 642 149 648 161 L664 202 Z" fill="url(#glass-pickupbl)" stroke="#0d0f1a" stroke-width="3" stroke-linejoin="round"/><path d="M556 141 L556 202" stroke="#0d0f1a" stroke-width="4" fill="none"/>

  <!-- door seam + handle -->
  <line x1="112" y1="247" x2="418" y2="247" stroke="#6e7593" stroke-width="3" opacity="0.9"/><line x1="420" y1="256" x2="684" y2="256" stroke="#080910" stroke-width="3" opacity="0.55"/><line x1="556" y1="210" x2="556" y2="312" stroke="#0d0f1a" stroke-width="3" opacity="0.5"/><rect x="576" y="252" width="28" height="6" rx="3" fill="#080910"/><path d="M112 247 L112 320" stroke="#080910" stroke-width="4" opacity="0.65"/><path d="M182 300 C182 272 206 258 232 258 C258 258 282 272 282 300" stroke="#080910" stroke-width="3" fill="none" opacity="0.55"/>

  <!-- lights -->
  <rect x="112" y="280" width="14" height="20" rx="4" fill="#e42b3c"/>
  <rect x="112" y="280" width="14" height="20" rx="4" fill="none" stroke="#8c0f1c" stroke-width="1.5"/>
  <rect x="684" y="280" width="16" height="18" rx="4" fill="#fff3c4"/>
  <rect x="684" y="280" width="16" height="18" rx="4" fill="none" stroke="#d1a83a" stroke-width="1.5"/>

  <!-- side accent stripe -->
  <path d="M95 296 L712 296 L712 306 L95 306 Z" fill="#080910" opacity="0.9"/>

  <!-- wheels -->
  <g>
    <circle cx="225" cy="330" r="53" fill="#12162a"/>
    <circle cx="225" cy="330" r="53" fill="none" stroke="#000000" stroke-width="2" opacity="0.4"/>
    <circle cx="225" cy="330" r="34" fill="#232840"/>
    <circle cx="225" cy="330" r="30" fill="url(#rim-shared)"/>
    <rect x="220.5" y="301" width="9" height="16" rx="4" fill="#4c5578" transform="rotate(0.0 225 330)"/><rect x="220.5" y="301" width="9" height="16" rx="4" fill="#4c5578" transform="rotate(72.0 225 330)"/><rect x="220.5" y="301" width="9" height="16" rx="4" fill="#4c5578" transform="rotate(144.0 225 330)"/><rect x="220.5" y="301" width="9" height="16" rx="4" fill="#4c5578" transform="rotate(216.0 225 330)"/><rect x="220.5" y="301" width="9" height="16" rx="4" fill="#4c5578" transform="rotate(288.0 225 330)"/>
    <circle cx="225" cy="330" r="12" fill="#eef1fa"/>
    <circle cx="225" cy="330" r="12" fill="none" stroke="#8f99bd" stroke-width="1.5"/>
    <circle cx="209" cy="312" r="9" fill="#ffffff" opacity="0.35"/>
  </g>
  <g>
    <circle cx="605" cy="330" r="53" fill="#12162a"/>
    <circle cx="605" cy="330" r="53" fill="none" stroke="#000000" stroke-width="2" opacity="0.4"/>
    <circle cx="605" cy="330" r="34" fill="#232840"/>
    <circle cx="605" cy="330" r="30" fill="url(#rim-shared)"/>
    <rect x="600.5" y="301" width="9" height="16" rx="4" fill="#4c5578" transform="rotate(0.0 605 330)"/><rect x="600.5" y="301" width="9" height="16" rx="4" fill="#4c5578" transform="rotate(72.0 605 330)"/><rect x="600.5" y="301" width="9" height="16" rx="4" fill="#4c5578" transform="rotate(144.0 605 330)"/><rect x="600.5" y="301" width="9" height="16" rx="4" fill="#4c5578" transform="rotate(216.0 605 330)"/><rect x="600.5" y="301" width="9" height="16" rx="4" fill="#4c5578" transform="rotate(288.0 605 330)"/>
    <circle cx="605" cy="330" r="12" fill="#eef1fa"/>
    <circle cx="605" cy="330" r="12" fill="none" stroke="#8f99bd" stroke-width="1.5"/>
    <circle cx="589" cy="312" r="9" fill="#ffffff" opacity="0.35"/>
  </g>
</svg>
